<svg xmlns="http://www.w3.org/2000/svg" width="32" height="32" viewBox="0 0 32 32">
    <defs>
        <linearGradient id="a" x1="50%" x2="50%" y1="1.732%" y2="100%">
            <stop offset="0%" stop-color="#7A8389" stop-opacity=".504"/>
            <stop offset="100%" stop-color="#F1F2F3" stop-opacity="0"/>
        </linearGradient>
    </defs>
    <g fill="none" fill-rule="evenodd">
        <path fill="url(#a)" d="M16 23a7 7 0 1 0 0-14 7 7 0 0 0 0 14z"/>
        <path fill="#7A8389" fill-rule="nonzero" d="M16 25a9 9 0 1 1 0-18 9 9 0 0 1 0 18zm0-2a7 7 0 1 0 0-14 7 7 0 0 0 0 14z"/>
        <path fill="#7A8389" d="M16 15a1 1 0 0 1 1 1v4a1 1 0 0 1-2 0v-4a1 1 0 0 1 1-1zm0-4a1 1 0 1 1 0 2 1 1 0 0 1 0-2z"/>
    </g>
</svg>
