<svg xmlns="http://www.w3.org/2000/svg" width="61" height="60" viewBox="0 0 61 60">
    <defs>
        <linearGradient id="a" x1="50%" x2="50%" y1="1.732%" y2="100%">
            <stop offset="0%" stop-color="#DEC0F8"/>
            <stop offset="100%" stop-color="#F1F2F3" stop-opacity="0"/>
        </linearGradient>
    </defs>
    <g fill="none" fill-rule="evenodd" transform="translate(.016)">
        <ellipse cx="30.5" cy="30" fill="#EADBF8" rx="30.5" ry="30"/>
        <ellipse cx="30.5" cy="30" fill="url(#a)" rx="15.25" ry="15"/>
        <path fill="#8C29D7" fill-rule="nonzero" d="M30.5 46.875c-9.475 0-17.156-7.555-17.156-16.875s7.68-16.875 17.156-16.875c9.475 0 17.156 7.555 17.156 16.875S39.976 46.875 30.5 46.875zm0-3.75c7.37 0 13.344-5.876 13.344-13.125S37.87 16.875 30.5 16.875c-7.37 0-13.344 5.876-13.344 13.125S23.13 43.125 30.5 43.125z"/>
        <path fill="#8C29D7" fill-rule="nonzero" d="M17.883 21.016l2.696-2.696 22.539 22.539-2.696 2.696z"/>
    </g>
</svg>
