<svg xmlns="http://www.w3.org/2000/svg" width="43" height="13" viewBox="0 0 43 13">
    <path fill="#F8F8F8" fill-rule="evenodd" d="M45 12.997c-1.712 0-3.424.008-5.137-.01-1.639-.018-3.473-.044-5.068-.645-1.723-.65-2.864-1.787-4.012-3.124-.826-.962-2.449-3.015-3.24-4.006-.646-.812-1.912-2.418-2.604-3.195C24.07 1.039 22.994 0 21.5 0c-1.494 0-2.569 1.039-3.438 2.016-.692.776-1.958 2.383-2.605 3.195-.79.991-2.412 3.044-3.24 4.006-1.149 1.337-2.288 2.474-4.01 3.124-1.596.6-3.43.627-5.069.645-1.713.018-3.425.01-5.137.01"/>
</svg>
