<svg xmlns="http://www.w3.org/2000/svg" width="13" height="43" viewBox="0 0 13 43">
    <path fill="#F8F8F8" fill-rule="evenodd" d="M12.997-2c0 1.712.008 3.424-.01 5.137-.018 1.639-.044 3.473-.645 5.068-.65 1.723-1.787 2.864-3.124 4.012-.962.826-3.015 2.449-4.006 3.24-.812.646-2.418 1.912-3.195 2.604C1.039 18.93 0 20.006 0 21.5c0 1.494 1.039 2.569 2.016 3.438.776.692 2.383 1.958 3.195 2.605.991.79 3.044 2.412 4.006 3.24 1.337 1.149 2.474 2.288 3.124 4.01.6 1.596.627 3.43.645 5.069.018 1.713.01 3.425.01 5.137"/>
</svg>
