<svg xmlns="http://www.w3.org/2000/svg" width="14" height="14" viewBox="0 0 14 14">
    <path fill="#B8B8B8" fill-rule="evenodd" d="M13.792 1.417c.139.139.208.264.208.375 0 .11-.07.236-.208.375l-4.75 4.75c-.056.055-.084.11-.084.166 0 .056.028.111.084.167l4.625 4.625c.139.139.208.264.208.375 0 .111-.07.236-.208.375l-1.084 1.083a.518.518 0 0 1-.375.167.518.518 0 0 1-.375-.167L7.208 9.083c-.11-.11-.222-.11-.333 0l-4.792 4.75a.518.518 0 0 1-.375.167.518.518 0 0 1-.375-.167L.25 12.75a.518.518 0 0 1-.167-.375c0-.139.056-.264.167-.375l4.792-4.75c.11-.111.11-.222 0-.333L.167 2.042A.518.518 0 0 1 0 1.667c0-.14.056-.264.167-.375L1.208.208C1.348.07 1.472 0 1.583 0c.111 0 .236.07.375.208l4.917 4.875c.111.111.222.111.333 0l4.75-4.75c.14-.139.264-.208.375-.208.111 0 .236.07.375.208l1.084 1.084z"/>
</svg>
