<svg xmlns="http://www.w3.org/2000/svg" width="60" height="60" viewBox="0 0 60 60">
    <defs>
        <linearGradient id="a" x1="50%" x2="50%" y1="1.732%" y2="100%">
            <stop offset="0%" stop-color="#7A8389" stop-opacity=".504"/>
            <stop offset="100%" stop-color="#F1F2F3" stop-opacity="0"/>
        </linearGradient>
    </defs>
    <g fill="none" fill-rule="evenodd">
        <circle cx="30" cy="30" r="30" fill="#7A8389" fill-opacity=".1"/>
        <path fill="#7A8389" fill-rule="nonzero" d="M26.25 26.25v7.5h7.5v-7.5h-7.5zm-1.875-3.75h11.25c1.036 0 1.875.84 1.875 1.875v11.25c0 1.036-.84 1.875-1.875 1.875h-11.25a1.875 1.875 0 0 1-1.875-1.875v-11.25c0-1.036.84-1.875 1.875-1.875zM41.25 35.732a1.875 1.875 0 0 1 3.75 0v7.393C45 44.161 44.16 45 43.125 45h-7.343a1.875 1.875 0 1 1 0-3.75h5.468v-5.518zM18.75 18.75v5.762a1.875 1.875 0 0 1-3.75 0v-7.637c0-1.036.84-1.875 1.875-1.875h7.536a1.875 1.875 0 0 1 0 3.75H18.75z"/>
        <path fill="url(#a)" d="M11.25 11.25v7.5h7.5v-7.5z" transform="translate(15 15)"/>
    </g>
</svg>
