<svg xmlns="http://www.w3.org/2000/svg" xmlns:xlink="http://www.w3.org/1999/xlink" width="203" height="246" viewBox="0 0 203 246">
    <defs>
        <path id="a" d="M12.488 0h10.448c4.343 0 5.917.452 7.505 1.3a8.847 8.847 0 0 1 3.682 3.679c.85 1.586 1.301 3.159 1.301 7.497v10.437c0 4.338-.452 5.911-1.3 7.497a8.847 8.847 0 0 1-3.683 3.68c-1.588.847-3.162 1.299-7.505 1.299H12.488c-4.342 0-5.917-.452-7.504-1.3A8.847 8.847 0 0 1 1.3 30.41C.452 28.824 0 27.251 0 22.913V12.476c0-4.338.452-5.911 1.301-7.497a8.847 8.847 0 0 1 3.683-3.68C6.57.453 8.146 0 12.488 0z"/>
        <linearGradient id="c" x1="50%" x2="50%" y1="0%" y2="100%">
            <stop offset="0%" stop-color="#FB00FD"/>
            <stop offset="100%" stop-color="#8C29D7"/>
        </linearGradient>
        <linearGradient id="d" x1="50%" x2="50%" y1="45.445%" y2="100%">
            <stop offset="0%" stop-color="#EEE"/>
            <stop offset="100%" stop-color="#FFF" stop-opacity="0"/>
        </linearGradient>
    </defs>
    <g fill="none" fill-rule="evenodd" transform="translate(-65 -8)">
        <ellipse cx="171.845" cy="244.868" fill="#000" fill-opacity=".082" rx="88.167" ry="9.044"/>
        <g fill-rule="nonzero" transform="translate(82.103 159.943)">
            <ellipse cx="29.613" cy="27.314" fill="#913CD2" rx="23.977" ry="17.697" transform="rotate(-30 29.613 27.314)"/>
            <path fill="#000" fill-opacity=".1" d="M22.042 10.366a32.608 32.608 0 0 1 2.971-1.937c11.468-6.621 24.726-5.127 29.613 3.338 4.856 8.41-.38 20.536-11.695 27.185-9.77-7.53-17.117-17.392-20.89-28.586z"/>
        </g>
        <path fill="#D8D8D8" d="M67.108 158.66l5.842 8.344 5.155-1.383 3.063-4.371-5.842-8.344c3.927-.53 8.007 1.1 10.436 4.57 2.734 3.903 2.564 8.97-.056 12.64l20.847 29.772c.118 1.177-.582 2.297-2.1 3.36-1.519 1.064-2.811 1.338-3.877.825L79.729 174.3c-4.343 1.207-9.163-.367-11.896-4.27a10.943 10.943 0 0 1-.725-11.37z"/>
        <path fill="#000" fill-opacity=".102" d="M77.09 152.812a10.928 10.928 0 0 1 8.672 4.664c2.734 3.903 2.564 8.97-.056 12.64l20.847 29.772c.118 1.177-.582 2.297-2.1 3.36-1.519 1.064-2.811 1.338-3.877.825l-.485-.693a7.519 7.519 0 0 0 1.186-.691c1.518-1.064 2.218-2.184 2.1-3.361l-20.846-29.772c2.62-3.669 2.79-8.737.056-12.64-1.4-2-3.347-3.387-5.497-4.104zm-10.948 8.444c.21-.898.533-1.771.966-2.596l5.795 8.276-2.344.629-4.417-6.309z"/>
        <path fill="#7228AA" fill-rule="nonzero" d="M105.9 206.666c1.676-3.594-.034-9.04-3.628-10.717-3.594-1.675-9.055.575-10.731 4.169 1.832 2.332 3.783 3.947 5.852 4.843 1.766 1.137 4.602 1.705 8.507 1.705z"/>
        <g fill-rule="nonzero">
            <path fill="#913CD2" d="M223.753 202.942c-11.468-6.614-16.803-18.83-11.916-27.287 4.887-8.456 18.145-9.948 29.613-3.334 11.468 6.614 16.803 18.831 11.916 27.287-4.887 8.456-18.145 9.949-29.613 3.334z"/>
            <path fill="#000" fill-opacity=".1" d="M240.483 171.117a32.639 32.639 0 0 0-2.978-1.942c-11.468-6.62-24.722-5.133-29.604 3.323-4.85 8.4.387 20.517 11.7 27.167 9.766-7.52 17.11-17.37 20.882-28.548z"/>
        </g>
        <g transform="translate(100.21 86.011)">
            <ellipse cx="70.258" cy="61.144" fill="#BA60FF" fill-rule="nonzero" rx="70.258" ry="61.144"/>
            <path fill="#000" fill-opacity=".088" fill-rule="nonzero" d="M6.243 35.26C17.47 14.43 41.833 0 70.078 0c38.902 0 70.439 27.375 70.439 61.144 0 13.158-4.788 25.345-12.934 35.32 4.237-7.86 6.604-16.631 6.604-25.883 0-33.769-31.537-61.144-70.44-61.144-23.744 0-44.744 10.198-57.504 25.824z"/>
            <path fill="#A957E9" d="M26.371 80.215a1.967 1.967 0 1 1-.002-3.934 1.967 1.967 0 0 1 .002 3.934zm11.415 0a1.967 1.967 0 1 1-.002-3.934 1.967 1.967 0 0 1 .002 3.934zM32.669 86.9a1.967 1.967 0 1 1-.002-3.934 1.967 1.967 0 0 1 .002 3.934zM98.795 80.215a1.967 1.967 0 1 1-.002-3.934 1.967 1.967 0 0 1 .002 3.934zm11.414 0a1.967 1.967 0 1 1-.002-3.934 1.967 1.967 0 0 1 .002 3.934zm-5.117 6.685a1.967 1.967 0 1 1-.002-3.934 1.967 1.967 0 0 1 .002 3.934z"/>
            <path fill="#FFF" d="M31.709 63.68c7.979-2.137 14.406-4.024 12.268-12.003S33.637 38.963 25.66 41.101c-7.98 2.138-12.715 10.34-10.577 18.318 2.138 7.98 8.648 6.4 16.627 4.262z"/>
            <path fill="#000" d="M22.622 49.926a2.558 2.558 0 1 0 1.83-4.249 6.298 6.298 0 1 1-1.83 4.249z"/>
            <g>
                <path fill="#FFF" d="M105.202 62.233c7.98 2.138 14.311 4.378 16.45-3.6 2.137-7.98-2.598-16.181-10.577-18.32-7.979-2.137-16.18 2.598-18.318 10.577-2.138 7.979 4.466 9.205 12.445 11.343z"/>
                <path fill="#000" d="M102.764 44.876a2.558 2.558 0 1 0 3.71-2.765 6.298 6.298 0 1 1-3.709 2.764z"/>
            </g>
        </g>
        <g>
            <path fill="#31334A" d="M68.161 111.587c-.976-9.287 42.66-21.485 97.465-27.245 54.804-5.76 100.023-2.902 101 6.385.133 1.277.646 6.154.78 7.43.976 9.287-44.508 18.798-99.313 24.558-54.804 5.76-98.175 5.589-99.151-3.698l-.78-7.43z"/>
            <path fill="#212337" fill-opacity=".71" d="M263.36 87.013c1.993 1.09 3.12 2.331 3.265 3.714l.781 7.43c.976 9.287-44.508 18.798-99.313 24.558-53.912 5.666-96.76 5.593-99.07-3.252 11.092 5.612 49.385 4.998 95.922.106 54.804-5.76 100.289-15.27 99.313-24.557l-.781-7.43a2.966 2.966 0 0 0-.118-.57z"/>
            <path fill="#1C1E33" d="M167.628 115.675c54.804-5.76 99.941-15.964 98.977-25.143-.965-9.18-46.175-11.95-100.98-6.19-54.804 5.76-98.45 17.87-97.484 27.05.964 9.178 44.683 10.043 99.487 4.283z"/>
            <path fill="#07070D" d="M165.946 115.546c53.328-5.798 95.342-15.353 94.395-24.356-.946-9.003-44.462-11.842-97.846-6.511 1.04-.115 2.083-.227 3.13-.337 54.805-5.76 100.015-2.99 100.98 6.19.964 9.179-42.722 18.93-97.527 24.69-1.047.11-2.092.218-3.132.324z"/>
            <path fill="#31334A" d="M95.256 30.38c9.72-9.018 29.023-15.297 57.909-18.838 28.885-3.54 48.76-3.543 59.623-.006l8.853 84.232c-16.773 6.562-35.12 10.89-55.042 12.985-19.922 2.093-38.893 1.688-56.912-1.218L95.256 30.379z"/>
            <path fill="#232536" d="M152.838 11.766c1.037-.12 2.08-.234 3.13-.345 20.655-2.17 39.595-2.132 56.82.115l8.853 84.232c-16.773 6.562-35.12 10.89-55.042 12.985-1.047.11-2.092.213-3.134.31 18.718-2.207 36.022-6.42 51.913-12.637l-8.853-84.232c-16.35-2.133-34.246-2.276-53.687-.428z"/>
            <path fill="#FFF" d="M107.29 93.856c17.908 3.08 37.206 3.533 57.895 1.358 20.69-2.174 39.162-6.538 55.418-13.092l1.185 13.31c-16.806 6.516-35.186 10.823-55.14 12.92-19.954 2.097-38.952 1.72-56.994-1.134l-2.364-13.362z"/>
            <path fill="#E8E8E8" d="M162.066 95.523c-1.042.122-2.09.239-3.144.35-18.563 1.95-35.69 1.8-51.381-.45l-.274-1.532c17.019 2.902 35.285 3.447 54.799 1.632zm52.422-11.077c2.072-.741 4.11-1.516 6.115-2.324l1.185 13.31c-16.806 6.516-35.186 10.823-55.14 12.92-1.047.11-2.092.213-3.134.31 18.75-2.207 36.087-6.397 52.01-12.571l-1.036-11.645z"/>
        </g>
        <g transform="rotate(-5 585.007 -1635.691)">
            <mask id="b" fill="#fff">
                <use xlink:href="#a"/>
            </mask>
            <use fill="#FFF" xlink:href="#a"/>
            <path fill="#E8E8E8" d="M31.44 1.918a8.832 8.832 0 0 1 2.683 3.06c.85 1.587 1.301 3.16 1.301 7.498v10.437c0 4.338-.452 5.911-1.3 7.497a8.847 8.847 0 0 1-3.683 3.68c-1.588.847-3.162 1.299-7.505 1.299H12.488c-4.342 0-5.917-.452-7.504-1.3A8.847 8.847 0 0 1 1.3 30.41c-.062-.115-.121-.23-.179-.347.316.225.65.431 1 .618 1.587.848 3.161 1.3 7.504 1.3h10.448c4.342 0 5.917-.452 7.504-1.3a8.847 8.847 0 0 0 3.683-3.679c.849-1.586 1.3-3.159 1.3-7.497V9.068c0-4.023-.388-5.668-1.121-7.15z" mask="url(#b)"/>
            <path fill="url(#c)" fill-rule="nonzero" d="M21.449 18.423l1.058 6.183a2.497 2.497 0 0 1-3.623 2.632 1.238 1.238 0 1 1 1.156-2.191c.012 0-.37-2.283-1.145-6.847-.069-.401.064-.81.355-1.095l3.681-3.594a.882.882 0 0 0-.484-1.503l-5.096-.767a1.24 1.24 0 0 1-.934-.679l-2.272-4.611a.882.882 0 0 0-1.58-.003l-2.296 4.614c-.18.366-.53.62-.934.679l-5.085.74a.882.882 0 0 0-.492 1.5l3.678 3.624c.291.285.424.694.356 1.095l-.869 5.072a.882.882 0 0 0 1.276.931l4.566-2.378a1.24 1.24 0 0 1 1.818 1.096v22.06a1.24 1.24 0 0 1-2.48 0V24.974l-4.3 2.264a2.496 2.496 0 0 1-3.624-2.632l1.059-6.183-4.485-4.379a2.498 2.498 0 0 1 1.384-4.259l5.737-.835a.882.882 0 0 0 .663-.482l2.567-5.208a2.496 2.496 0 0 1 4.479 0l2.77 5.624 6.196.901a2.497 2.497 0 0 1 1.384 4.26l-4.484 4.378z" mask="url(#b)" transform="rotate(35 13.343 24.043)"/>
            <path fill="url(#d)" d="M18.092 21.638l-3.62 1.9a.588.588 0 0 1-.852-.62l.69-4.024a.588.588 0 0 0-.168-.52l-2.927-2.85a.588.588 0 0 1 .326-1.002l4.045-.588a.588.588 0 0 0 .443-.32l1.809-3.663a.588.588 0 0 1 1.054 0l1.81 3.662a.588.588 0 0 0 .442.321l4.045.588a.588.588 0 0 1 .325 1.002l-2.926 2.85a.588.588 0 0 0-.17.52l.692 4.025a.588.588 0 0 1-.853.62l-3.619-1.901a.588.588 0 0 0-.546 0z" mask="url(#b)" transform="rotate(37 18.365 16.488)"/>
        </g>
        <g stroke="#000" stroke-linecap="round" stroke-linejoin="round" stroke-width="3.149">
            <path d="M158.462 161.91c5.87 5.774 15.386 5.774 21.255 0"/>
        </g>
    </g>
</svg>
