<svg xmlns="http://www.w3.org/2000/svg" width="61" height="60" viewBox="0 0 61 60">
    <g fill="#7A8389" fill-rule="evenodd" transform="translate(.083)">
        <ellipse cx="30.5" cy="30" fill-opacity=".1" rx="30.5" ry="30"/>
        <path fill-rule="nonzero" d="M30.5 41.25c7.971 0 14.016-3.633 18.535-11.26C44.57 22.378 38.53 18.75 30.5 18.75c-8.03 0-14.07 3.628-18.535 11.24 4.52 7.627 10.564 11.26 18.535 11.26zm0 3.75c-9.369 0-16.645-4.374-21.83-13.122a3.697 3.697 0 0 1-.008-3.763C13.792 19.372 21.072 15 30.5 15s16.708 4.372 21.838 13.115c.683 1.165.68 2.601-.009 3.763C47.145 40.626 39.87 45 30.5 45z"/>
        <path fill-rule="nonzero" d="M30.5 39.375c5.264 0 9.531-4.197 9.531-9.375s-4.267-9.375-9.531-9.375-9.531 4.197-9.531 9.375 4.267 9.375 9.531 9.375zm0 3.75c-7.37 0-13.344-5.876-13.344-13.125S23.13 16.875 30.5 16.875c7.37 0 13.344 5.876 13.344 13.125S37.87 43.125 30.5 43.125z"/>
        <path d="M24.803 29.51c.556.312 1.199.49 1.884.49 2.106 0 3.813-1.679 3.813-3.75 0-.674-.181-1.307-.498-1.854a5.89 5.89 0 0 1 .498-.021c3.158 0 5.719 2.518 5.719 5.625s-2.56 5.625-5.719 5.625c-3.158 0-5.719-2.518-5.719-5.625 0-.165.007-.328.022-.49z"/>
    </g>
</svg>
