<svg xmlns="http://www.w3.org/2000/svg" width="60" height="60" viewBox="0 0 60 60">
    <defs>
        <linearGradient id="a" x1="50%" x2="50%" y1="1.732%" y2="100%">
            <stop offset="0%" stop-color="#DEC0F8"/>
            <stop offset="100%" stop-color="#F1F2F3" stop-opacity="0"/>
        </linearGradient>
    </defs>
    <g fill="none" fill-rule="evenodd">
        <circle cx="30" cy="30" r="30" fill="#EADBF8"/>
        <path fill="url(#a)" d="M30 39.375a9.375 9.375 0 1 0 0-18.75 9.375 9.375 0 0 0 0 18.75z"/>
        <g fill="#8C29D7">
            <path fill-rule="nonzero" d="M30 41.25c7.84 0 13.786-3.633 18.232-11.26C43.839 22.378 37.897 18.75 30 18.75c-7.897 0-13.839 3.628-18.232 11.24C16.214 37.617 22.16 41.25 30 41.25zM30 45c-9.215 0-16.372-4.374-21.471-13.122a3.75 3.75 0 0 1-.009-3.763C13.566 19.372 20.726 15 30 15c9.274 0 16.434 4.372 21.48 13.115a3.75 3.75 0 0 1-.009 3.763C46.372 40.626 39.215 45 30 45z"/>
            <path fill-rule="nonzero" d="M30 39.375a9.375 9.375 0 1 0 0-18.75 9.375 9.375 0 0 0 0 18.75zm0 3.75c-7.249 0-13.125-5.876-13.125-13.125S22.751 16.875 30 16.875 43.125 22.751 43.125 30 37.249 43.125 30 43.125z"/>
            <path d="M24.396 29.51a3.75 3.75 0 0 0 5.114-5.114 5.625 5.625 0 1 1-5.114 5.114z"/>
        </g>
    </g>
</svg>
