<svg xmlns="http://www.w3.org/2000/svg" xmlns:xlink="http://www.w3.org/1999/xlink" width="16" height="16" viewBox="0 0 16 16">
    <defs>
        <path id="a" d="M5.64 0h4.72c1.96 0 2.672.204 3.39.588.716.383 1.279.946 1.662 1.663.384.717.588 1.428.588 3.39v4.718c0 1.962-.204 2.673-.588 3.39a3.998 3.998 0 0 1-1.663 1.663c-.717.384-1.428.588-3.39.588H5.641c-1.962 0-2.673-.204-3.39-.588A3.998 3.998 0 0 1 .588 13.75C.204 13.032 0 12.321 0 10.36V5.641c0-1.962.204-2.673.588-3.39A3.998 3.998 0 0 1 2.25.588C2.968.204 3.679 0 5.64 0z"/>
        <linearGradient id="b" x1="50%" x2="50%" y1="0%" y2="100%">
            <stop offset="0%" stop-color="#FB00FD"/>
            <stop offset="100%" stop-color="#802DD3"/>
        </linearGradient>
        <linearGradient id="d" x1="50%" x2="50%" y1="45.445%" y2="100%">
            <stop offset="0%" stop-color="#EEE"/>
            <stop offset="100%" stop-color="#FFF" stop-opacity="0"/>
        </linearGradient>
    </defs>
    <g fill="none" fill-rule="evenodd">
        <mask id="c" fill="#fff">
            <use xlink:href="#a"/>
        </mask>
        <use fill="#FFF" xlink:href="#a"/>
        <path fill="url(#b)" fill-rule="nonzero" d="M10.483 10.889L9.27 13.453a1.129 1.129 0 0 1-2.023.036.56.56 0 1 1 .996-.512c.004.003.455-.941 1.352-2.833a.56.56 0 0 1 .415-.313l2.292-.377a.4.4 0 0 0 .21-.684L10.83 7.167a.56.56 0 0 1-.17-.493l.355-2.293a.4.4 0 0 0-.586-.412L8.385 5.08a.56.56 0 0 1-.521.01L5.793 4.049a.4.4 0 0 0-.573.43l.42 2.292a.56.56 0 0 1-.152.497L3.853 8.919a.4.4 0 0 0 .233.678l2.302.302a.56.56 0 0 1 .388.877l-5.72 8.17a.56.56 0 0 1-.918-.642l5.189-7.41-2.179-.276a1.127 1.127 0 0 1-.658-1.913l1.995-2.016-.524-2.784a1.13 1.13 0 0 1 1.617-1.218l2.338 1.176a.4.4 0 0 0 .372-.007l2.3-1.263a1.127 1.127 0 0 1 1.657 1.16l-.433 2.801 2.058 1.939a1.129 1.129 0 0 1-.592 1.936l-2.795.46z" mask="url(#c)"/>
        <path fill="url(#d)" d="M6.794 9.24l-1.82-.297a.267.267 0 0 1-.139-.458l1.342-1.263a.267.267 0 0 0 .081-.235l-.28-1.822a.267.267 0 0 1 .392-.274l1.617.886c.077.042.17.044.248.004l1.646-.83a.267.267 0 0 1 .382.289L9.92 7.05a.267.267 0 0 0 .072.237l1.298 1.31a.267.267 0 0 1-.156.452l-1.829.233a.267.267 0 0 0-.203.143l-.844 1.638a.267.267 0 0 1-.479-.008L6.992 9.39a.267.267 0 0 0-.198-.15z" mask="url(#c)"/>
    </g>
</svg>
