<svg xmlns="http://www.w3.org/2000/svg" xmlns:xlink="http://www.w3.org/1999/xlink" width="263" height="313" viewBox="0 0 263 313">
    <defs>
        <path id="a" d="M15.884 0h13.288c5.523 0 7.526.575 9.545 1.655A11.26 11.26 0 0 1 43.4 6.34c1.08 2.02 1.655 4.022 1.655 9.546v13.291c0 5.524-.575 7.527-1.655 9.547a11.26 11.26 0 0 1-4.683 4.684c-2.02 1.08-4.022 1.656-9.545 1.656H15.884c-5.524 0-7.526-.576-9.545-1.656a11.26 11.26 0 0 1-4.684-4.684C.575 36.704 0 34.7 0 29.177v-13.29c0-5.525.575-7.528 1.655-9.547a11.26 11.26 0 0 1 4.684-4.685C8.358.575 10.36 0 15.884 0z"/>
        <linearGradient id="c" x1="50%" x2="50%" y1="0%" y2="100%">
            <stop offset="0%" stop-color="#FB00FD"/>
            <stop offset="100%" stop-color="#8C29D7"/>
        </linearGradient>
        <linearGradient id="d" x1="50%" x2="50%" y1="45.445%" y2="100%">
            <stop offset="0%" stop-color="#EEE"/>
            <stop offset="100%" stop-color="#FFF" stop-opacity="0"/>
        </linearGradient>
    </defs>
    <g fill="none" fill-rule="evenodd" transform="translate(-77 -10)">
        <ellipse cx="218.284" cy="311.451" fill="#000" fill-opacity=".082" rx="112.138" ry="11.516"/>
        <g transform="translate(75.609 192.784)">
            <ellipse cx="66.118" cy="45.198" fill="#913CD2" fill-rule="nonzero" rx="30.458" ry="22.481" transform="rotate(-30 66.118 45.198)"/>
            <path fill="#000" fill-opacity=".1" fill-rule="nonzero" d="M56.5 23.668a41.422 41.422 0 0 1 3.775-2.46c14.567-8.412 31.41-6.513 37.617 4.24 6.168 10.682-.482 26.087-14.856 34.534C70.624 50.417 61.292 37.888 56.5 23.668z"/>
            <path fill="#31334A" d="M1.904 10.036c.119-2.52.838-4.44 2.158-5.76 1.32-1.32 3.24-2.04 5.76-2.158l49.083 49.083c-.238 2.402-1.016 4.263-2.336 5.582-1.32 1.32-3.18 2.098-5.582 2.336L1.904 10.036z"/>
            <path fill="#000" fill-opacity=".12" d="M6.889 2.61c.865-.277 1.843-.44 2.933-.492l49.083 49.083c-.238 2.402-1.016 4.263-2.336 5.582-1.32 1.32-3.18 2.098-5.582 2.336l-.592-.592c1.098-.4 2.021-.975 2.77-1.724 1.32-1.32 2.098-3.18 2.335-5.583L6.89 2.61z"/>
            <path fill="#FFF" d="M9.822 2.118l6.032 6.033c-.237 2.402-1.015 4.262-2.335 5.582-1.32 1.32-3.18 2.098-5.582 2.335l-6.033-6.032c.119-2.52.838-4.44 2.158-5.76 1.32-1.32 3.24-2.04 5.76-2.158z"/>
            <path fill="#F2F2F2" d="M9.216 4.936c.865-.276-.273-2.555.817-2.606l5.821 5.82c-.102 1.04-.306 1.977-.611 2.813L9.216 4.936z"/>
            <path fill="#F2F2F2" d="M4.89 9.598c.217-.179.425-.367.623-.566 1.64-1.64 2.633-3.925 2.981-6.856.436-.066.893-.11 1.371-.133l.218.218c-.238 2.402-1.016 4.263-2.336 5.582-.768.769-1.72 1.354-2.857 1.755z"/>
            <path fill="#7228AA" fill-rule="nonzero" d="M58.73 69.853c2.128-4.566-.045-11.485-4.61-13.614-4.565-2.129-11.503.73-13.631 5.295 2.327 2.964 4.805 5.014 7.434 6.152 2.243 1.444 5.845 2.167 10.807 2.167z"/>
        </g>
        <g fill-rule="nonzero">
            <path fill="#913CD2" d="M284.305 258.063c-14.586-8.422-21.371-23.979-15.156-34.747 6.216-10.767 23.078-12.668 37.664-4.246 14.586 8.423 21.371 23.98 15.155 34.747-6.215 10.768-23.078 12.669-37.663 4.246z"/>
            <path fill="#000" fill-opacity=".1" d="M305.587 217.527a41.466 41.466 0 0 0-3.778-2.462c-14.586-8.421-31.45-6.519-37.666 4.249-6.177 10.698.481 26.123 14.874 34.58 12.428-9.578 21.772-22.125 26.57-36.367z"/>
        </g>
        <g transform="translate(127.172 109.165)">
            <ellipse cx="89.36" cy="77.86" fill="#BA60FF" fill-rule="nonzero" rx="89.36" ry="77.86"/>
            <path fill="#000" fill-opacity=".088" fill-rule="nonzero" d="M7.94 44.9C22.221 18.376 53.207 0 89.13 0c49.479 0 89.59 34.86 89.59 77.86 0 16.755-6.09 32.274-16.45 44.976 5.388-10.009 8.399-21.178 8.399-32.96 0-43-40.111-77.859-89.59-77.859-30.2 0-56.91 12.986-73.139 32.884z"/>
            <path fill="#A957E9" d="M33.541 102.144a2.503 2.503 0 1 1 0-5.006 2.503 2.503 0 0 1 0 5.006zm14.518 0a2.503 2.503 0 1 1 0-5.006 2.503 2.503 0 0 1 0 5.006zm-6.508 8.512a2.503 2.503 0 1 1 0-5.006 2.503 2.503 0 0 1 0 5.006zM125.654 102.144a2.503 2.503 0 1 1 0-5.006 2.503 2.503 0 0 1 0 5.006zm14.518 0a2.503 2.503 0 1 1 0-5.006 2.503 2.503 0 0 1 0 5.006zm-6.508 8.512a2.503 2.503 0 1 1 0-5.006 2.503 2.503 0 0 1 0 5.006z"/>
            <path fill="#FFF" d="M40.297 81.015c10.136-2.716 18.3-5.112 15.585-15.248-2.716-10.136-13.134-16.151-23.27-13.435-10.136 2.716-16.151 13.134-13.435 23.27 2.716 10.136 10.985 8.13 21.12 5.413z"/>
            <path fill="#000" d="M28.754 63.542a3.25 3.25 0 1 0 2.325-5.397 8 8 0 1 1-2.324 5.397z"/>
            <g>
                <path fill="#FFF" d="M133.657 79.176c10.136 2.716 18.18 5.562 20.895-4.574 2.716-10.136-3.299-20.554-13.435-23.27-10.135-2.716-20.554 3.299-23.27 13.435-2.716 10.136 5.674 11.693 15.81 14.409z"/>
                <path fill="#000" d="M130.56 57.127a3.25 3.25 0 1 0 4.711-3.512 8 8 0 1 1-4.711 3.512z"/>
            </g>
        </g>
        <path fill="#31334A" d="M86.417 141.717c-1.243-11.826 54.255-27.352 123.96-34.678 69.704-7.326 127.218-3.678 128.461 8.147l.994 9.462c1.243 11.826-56.606 23.928-126.31 31.255-69.705 7.326-124.868 7.101-126.111-4.725l-.994-9.461z"/>
        <path fill="#212337" fill-opacity=".71" d="M334.684 110.456c2.536 1.39 3.969 2.97 4.154 4.73l.994 9.462c1.243 11.826-56.606 23.928-126.31 31.255-68.57 7.207-123.07 7.106-126.008-4.157 14.109 7.148 62.813 6.372 122.002.151 69.705-7.326 127.554-19.43 126.311-31.255l-.994-9.461a3.781 3.781 0 0 0-.15-.725z"/>
        <path fill="#1C1E33" d="M212.928 146.938c69.705-7.326 127.112-20.312 125.884-32-1.229-11.689-58.731-15.225-128.435-7.899-69.705 7.326-125.215 22.74-123.987 34.429 1.229 11.688 56.834 12.796 126.538 5.47z"/>
        <path fill="#07070D" d="M210.789 146.774c67.826-7.375 121.262-19.534 120.057-31-1.205-11.464-56.553-15.086-124.451-8.306 1.322-.146 2.65-.289 3.982-.429 69.704-7.326 127.206-3.79 128.435 7.898 1.228 11.689-54.335 24.1-124.039 31.425-1.333.14-2.66.278-3.984.412z"/>
        <path fill="#31334A" d="M120.865 38.315c12.363-11.48 36.913-19.473 73.651-23.978 36.738-4.504 62.017-4.504 75.835.002l11.273 107.259c-21.332 8.354-44.667 13.862-70.005 16.526-25.339 2.663-49.467 2.143-72.387-1.56l-18.367-98.25z"/>
        <path fill="#232536" d="M194.1 14.622c1.32-.152 2.646-.298 3.98-.438 26.273-2.762 50.363-2.71 72.27.155l11.274 107.259c-21.332 8.354-44.667 13.862-70.005 16.526-1.333.14-2.661.27-3.987.393 23.807-2.806 45.816-8.167 66.026-16.082L262.385 15.176c-20.796-2.72-43.557-2.904-68.285-.554z"/>
        <path fill="#FFF" d="M136.182 119.146c22.777 3.924 47.322 4.504 73.636 1.738 26.315-2.766 49.809-8.32 70.483-16.663l1.51 16.95c-21.374 8.294-44.75 13.775-70.13 16.443-25.379 2.667-49.543 2.183-72.49-1.453l-3.01-17.015z"/>
        <path fill="#E8E8E8" d="M205.85 121.277c-1.325.156-2.657.304-3.998.444-23.61 2.482-45.393 2.288-65.351-.581l-.35-1.95c21.648 3.699 44.881 4.394 69.7 2.087zm66.674-14.097c2.635-.944 5.228-1.93 7.777-2.959l1.51 16.95c-21.374 8.294-44.75 13.775-70.13 16.443-1.332.14-2.66.27-3.986.393 23.848-2.807 45.898-8.14 66.15-15.999l-1.32-14.828z"/>
        <g transform="rotate(-5 740.54 -2077.294)">
            <mask id="b" fill="#fff">
                <use xlink:href="#a"/>
            </mask>
            <use fill="#FFF" xlink:href="#a"/>
            <path fill="#E8E8E8" d="M39.987 2.442A11.242 11.242 0 0 1 43.4 6.34c1.08 2.02 1.655 4.022 1.655 9.546v13.291c0 5.524-.575 7.527-1.655 9.547a11.26 11.26 0 0 1-4.683 4.684c-2.02 1.08-4.022 1.656-9.545 1.656H15.884c-5.524 0-7.526-.576-9.545-1.656a11.26 11.26 0 0 1-4.684-4.684 15.486 15.486 0 0 1-.228-.442c.402.286.826.549 1.27.787 2.02 1.08 4.023 1.655 9.546 1.655H25.53c5.523 0 7.526-.575 9.545-1.655a11.26 11.26 0 0 0 4.684-4.685c1.08-2.02 1.655-4.022 1.655-9.546V11.547c0-5.122-.495-7.217-1.428-9.105z" mask="url(#b)"/>
            <path fill="url(#c)" fill-rule="nonzero" d="M27.28 23.46l1.347 7.873a3.18 3.18 0 0 1-2.593 3.672 3.171 3.171 0 0 1-2.017-.32 1.577 1.577 0 0 1 1.471-2.791c.015 0-.47-2.906-1.456-8.718a1.577 1.577 0 0 1 .452-1.394L29.17 17.2a1.12 1.12 0 0 0-.615-1.908l-6.487-.978a1.577 1.577 0 0 1-1.188-.864l-2.89-5.874a1.12 1.12 0 0 0-2.008-.004L13.06 13.45c-.23.466-.673.79-1.187.864l-6.473.943a1.12 1.12 0 0 0-.625 1.906l4.682 4.619c.37.362.54.883.452 1.394l-1.106 6.463a1.12 1.12 0 0 0 1.622 1.182l5.81-3.03a1.577 1.577 0 0 1 2.312 1.396v28.092a1.577 1.577 0 1 1-3.154 0V31.8l-5.47 2.884a3.173 3.173 0 0 1-4.29-1.336 3.184 3.184 0 0 1-.32-2.016l1.348-7.874-5.705-5.576a3.184 3.184 0 0 1 1.761-5.423l7.297-1.063a1.12 1.12 0 0 0 .843-.614l3.264-6.632a3.173 3.173 0 0 1 5.697 0l3.525 7.161 7.88 1.148a3.18 3.18 0 0 1 1.76 5.423L27.28 23.46z" mask="url(#b)" transform="rotate(35 16.97 30.616)"/>
            <path fill="url(#d)" d="M23.01 27.553l-4.604 2.421a.747.747 0 0 1-1.084-.787l.88-5.128a.747.747 0 0 0-.215-.661l-3.725-3.632a.747.747 0 0 1 .413-1.274l5.149-.748a.747.747 0 0 0 .562-.409l2.302-4.666a.747.747 0 0 1 1.34 0l2.302 4.666c.108.22.319.373.562.409l5.148.748a.747.747 0 0 1 .414 1.274l-3.725 3.632a.747.747 0 0 0-.215.66l.88 5.13a.747.747 0 0 1-1.084.786l-4.605-2.421a.747.747 0 0 0-.695 0z" mask="url(#b)" transform="rotate(37 23.358 20.995)"/>
        </g>
        <g stroke="#000" stroke-linecap="round" stroke-linejoin="round" stroke-width="4">
            <path d="M227.364 199.237c-1.912-.632-4.2-.179-6.865 1.36-2.666 1.539-4.202 3.294-4.61 5.265"/>
        </g>
    </g>
</svg>
