<svg xmlns="http://www.w3.org/2000/svg" width="32" height="32" viewBox="0 0 32 32">
    <defs>
        <linearGradient id="a" x1="50%" x2="50%" y1="1.732%" y2="100%">
            <stop offset="0%" stop-color="#7A8389" stop-opacity=".504"/>
            <stop offset="100%" stop-color="#F1F2F3" stop-opacity="0"/>
        </linearGradient>
    </defs>
    <g fill="none" fill-rule="evenodd">
        <path fill="#7A8389" fill-rule="nonzero" d="M15.535 20.253a1 1 0 0 1 .93 0l3.278 1.723-.626-3.65a1 1 0 0 1 .288-.885l2.652-2.585-3.665-.533a1 1 0 0 1-.753-.547L16 10.456l-1.639 3.32a1 1 0 0 1-.753.547l-3.665.533 2.652 2.585a1 1 0 0 1 .288.885l-.626 3.65 3.278-1.723zM16 22.268l-4.606 2.421a1 1 0 0 1-1.451-1.054l.88-5.129-3.727-3.632a1 1 0 0 1 .554-1.706l5.15-.748 2.303-4.667a1 1 0 0 1 1.794 0L19.2 12.42l5.15.748a1 1 0 0 1 .554 1.706l-3.727 3.632.88 5.13a1 1 0 0 1-1.45 1.053L16 22.268z"/>
        <path fill="url(#a)" d="M15.535 20.253a1 1 0 0 1 .93 0l3.278 1.723-.626-3.65a1 1 0 0 1 .288-.885l2.652-2.585-3.665-.533a1 1 0 0 1-.753-.547L16 10.456l-1.639 3.32a1 1 0 0 1-.753.547l-3.665.533 2.652 2.585a1 1 0 0 1 .288.885l-.626 3.65 3.278-1.723z"/>
    </g>
</svg>
