<svg xmlns="http://www.w3.org/2000/svg" width="32" height="32" viewBox="0 0 32 32">
    <defs>
        <linearGradient id="a" x1="50%" x2="50%" y1="1.732%" y2="100%">
            <stop offset="0%" stop-color="#7A8389" stop-opacity=".504"/>
            <stop offset="100%" stop-color="#F1F2F3" stop-opacity="0"/>
        </linearGradient>
    </defs>
    <g fill="none" fill-rule="evenodd">
        <path fill="#7A8389" fill-rule="nonzero" d="M12 15v3.5a3.5 3.5 0 0 0 3.5 3.5h1a3.5 3.5 0 0 0 3.5-3.5V15h-8zm-1-2h10a1 1 0 0 1 1 1v4.5a5.5 5.5 0 0 1-5.5 5.5h-1a5.5 5.5 0 0 1-5.5-5.5V14a1 1 0 0 1 1-1zM16 8a3.001 3.001 0 0 0-2.83 2h5.66A3.001 3.001 0 0 0 16 8zm0-2a5 5 0 0 1 5 5 1 1 0 0 1-1 1h-8a1 1 0 0 1-1-1 5 5 0 0 1 5-5z"/>
        <path fill="#7A8389" fill-rule="nonzero" d="M12 15.917l-4.638-2.678a1.11 1.11 0 1 1 1.11-1.922L14.85 15H12v.917zM17.319 15l6.38-3.683a1.11 1.11 0 0 1 1.109 1.922L20.025 16h4.35a1.11 1.11 0 0 1 0 2.22h-3.948l4.381 2.529a1.11 1.11 0 0 1-1.11 1.922l-4.173-2.41c.302-.517.475-1.119.475-1.761V15h-2.681zm-4.8 5.334L8.47 22.671a1.11 1.11 0 1 1-1.11-1.922l4.382-2.53H7.51a1.11 1.11 0 0 1 0-2.219H12v2.5c0 .673.19 1.3.518 1.834z"/>
        <path fill="url(#a)" d="M12 15v3.5a3.5 3.5 0 0 0 3.5 3.5h1a3.5 3.5 0 0 0 3.5-3.5V15h-8z"/>
        <path fill="#7A8389" d="M16 17a1 1 0 0 1 1 1v5h-2v-5a1 1 0 0 1 1-1z"/>
    </g>
</svg>
