<svg xmlns="http://www.w3.org/2000/svg" xmlns:xlink="http://www.w3.org/1999/xlink" width="126" height="116" viewBox="0 0 126 116">
    <defs>
        <path id="a" d="M5.854 0h4.897c2.036 0 2.774.211 3.518.608a4.142 4.142 0 0 1 1.726 1.72c.398.742.61 1.477.61 3.506v4.88c0 2.03-.212 2.765-.61 3.507a4.142 4.142 0 0 1-1.726 1.72c-.744.397-1.482.608-3.518.608H5.854c-2.036 0-2.774-.211-3.518-.608A4.142 4.142 0 0 1 .61 14.22C.212 13.479 0 12.743 0 10.715V5.834C0 3.805.212 3.07.61 2.328A4.142 4.142 0 0 1 2.336.608C3.08.21 3.818 0 5.854 0z"/>
        <linearGradient id="c" x1="50%" x2="50%" y1="0%" y2="100%">
            <stop offset="0%" stop-color="#FB00FD"/>
            <stop offset="100%" stop-color="#8C29D7"/>
        </linearGradient>
        <linearGradient id="d" x1="50%" x2="50%" y1="45.445%" y2="100%">
            <stop offset="0%" stop-color="#EEE"/>
            <stop offset="100%" stop-color="#FFF" stop-opacity="0"/>
        </linearGradient>
        <path id="e" d="M1.135 4.54c1.108 2.352 2.69 3.528 4.747 3.528 2.076 0 3.668-1.197 4.777-3.592a.922.922 0 0 0-1.078-1.278 14.72 14.72 0 0 1-3.862.505c-1.25 0-2.419-.148-3.506-.446A.922.922 0 0 0 1.135 4.54z"/>
    </defs>
    <g fill="none" fill-rule="evenodd" transform="translate(-1 -4)">
        <ellipse cx="81.24" cy="115.313" fill="#000" fill-opacity=".082" rx="41.328" ry="4.229"/>
        <g transform="translate(28.657 71.734)">
            <ellipse cx="24.398" cy="16.122" fill="#913CD2" fill-rule="nonzero" rx="11.239" ry="8.019" transform="rotate(-30 24.398 16.122)"/>
            <path fill="#000" fill-opacity=".1" fill-rule="nonzero" d="M20.884 8.544c.47-.348.97-.676 1.496-.98 5.375-3.103 11.528-2.51 13.743 1.326 2.19 3.792-.292 9.335-5.545 12.459-4.518-3.383-7.923-7.798-9.694-12.805z"/>
            <path fill="#31334A" d="M1.003 3.63c.059-.915.332-1.617.819-2.104.486-.486 1.188-.76 2.103-.818l17.508 17.508c-.101.873-.395 1.553-.882 2.04-.487.487-1.167.781-2.04.882L1.003 3.63z"/>
            <path fill="#000" fill-opacity=".12" d="M2.858.904C3.173.8 3.529.734 3.925.708l17.508 17.508c-.101.873-.395 1.553-.882 2.04-.487.487-1.167.781-2.04.882l-.21-.211c.4-.152.738-.366 1.015-.643.487-.487.78-1.167.881-2.04L2.857.904z"/>
            <path fill="#FFF" d="M3.925.708L6.077 2.86c-.101.873-.395 1.553-.882 2.04-.487.487-1.167.78-2.04.882L1.003 3.63c.059-.915.332-1.617.819-2.104.486-.486 1.188-.76 2.103-.818z"/>
            <path fill="#F2F2F2" d="M3.688 1.734C4.003 1.63 3.605.81 4 .784L6.077 2.86a4.263 4.263 0 0 1-.24 1.024l-2.15-2.15z"/>
            <path fill="#F2F2F2" d="M2.09 3.453c.08-.067.156-.136.229-.21.605-.604.98-1.44 1.124-2.506.158-.026.324-.045.498-.056l.078.077c-.101.873-.395 1.553-.882 2.04a2.849 2.849 0 0 1-1.048.655z"/>
            <path fill="#7228AA" fill-rule="nonzero" d="M21.691 24.969c.76-1.629-.07-4.122-1.754-4.908-1.685-.785-4.216.208-4.976 1.836.868 1.075 1.787 1.823 2.756 2.243.83.53 2.155.805 3.974.829z"/>
        </g>
        <g fill-rule="nonzero">
            <path fill="#913CD2" d="M105.572 95.707c-5.376-3.093-7.877-8.806-5.586-12.76 2.29-3.954 8.506-4.653 13.881-1.56 5.376 3.093 7.876 8.806 5.586 12.76-2.291 3.955-8.506 4.653-13.881 1.56z"/>
            <path fill="#000" fill-opacity=".1" d="M113.411 80.832a15.334 15.334 0 0 0-1.403-.916c-5.375-3.103-11.584-2.414-13.867 1.54-2.267 3.927.19 9.597 5.489 12.715 4.573-3.515 8.013-8.116 9.781-13.34z"/>
        </g>
        <g transform="translate(47.66 41.027)">
            <ellipse cx="32.934" cy="28.593" fill="#BA60FF" fill-rule="nonzero" rx="32.934" ry="28.593"/>
            <path fill="#000" fill-opacity=".088" fill-rule="nonzero" d="M2.926 16.489C8.19 6.748 19.61 0 32.85 0c18.235 0 33.018 12.801 33.018 28.593 0 6.153-2.244 11.852-6.063 16.516 1.986-3.675 3.096-7.777 3.096-12.103 0-15.792-14.783-28.593-33.018-28.593-11.13 0-20.974 4.769-26.956 12.076z"/>
            <path fill="#A957E9" d="M12.362 37.51a.92.92 0 0 1-.923-.919.92.92 0 0 1 .923-.92.92.92 0 0 1 .922.92.92.92 0 0 1-.922.92zm5.35 0a.92.92 0 0 1-.922-.919.92.92 0 0 1 .922-.92.92.92 0 0 1 .923.92.92.92 0 0 1-.923.92zm-2.398 3.126a.92.92 0 0 1-.923-.919.92.92 0 0 1 .923-.92.92.92 0 0 1 .922.92.92.92 0 0 1-.922.92zM46.31 37.51a.92.92 0 0 1-.923-.919.92.92 0 0 1 .923-.92.92.92 0 0 1 .922.92.92.92 0 0 1-.922.92zm5.35 0a.92.92 0 0 1-.922-.919.92.92 0 0 1 .923-.92.92.92 0 0 1 .922.92.92.92 0 0 1-.922.92zm-2.398 3.126a.92.92 0 0 1-.923-.919.92.92 0 0 1 .923-.92.92.92 0 0 1 .923.92.92.92 0 0 1-.923.92z"/>
            <path fill="#FFF" d="M14.864 32.758c3.74-1.002 6.752-1.886 5.75-5.626A7.011 7.011 0 1 0 7.07 30.76c1.002 3.74 4.053 3 7.794 1.997z"/>
            <path fill="#000" d="M10.604 29.263a1.2 1.2 0 1 0 .858-1.992 2.952 2.952 0 1 1-.858 1.992z"/>
            <g>
                <path fill="#FFF" d="M49.313 32.08c3.74 1.002 6.709 2.052 7.711-1.688a7.011 7.011 0 1 0-13.544-3.63c-1.002 3.74 2.093 4.315 5.833 5.317z"/>
                <path fill="#000" d="M48.17 26.895a1.2 1.2 0 1 0 1.74-1.296 2.952 2.952 0 1 1-1.739 1.296z"/>
            </g>
        </g>
        <path fill="#31334A" d="M32.634 52.998c-.457-4.342 19.999-10.052 45.688-12.752 25.69-2.7 46.885-1.368 47.342 2.974l.365 3.475c.457 4.343-20.865 8.795-46.554 11.496-25.69 2.7-46.02 2.625-46.476-1.718l-.365-3.475z"/>
        <path fill="#212337" fill-opacity=".71" d="M124.134 41.484c.934.51 1.462 1.09 1.53 1.736l.365 3.475c.457 4.343-20.865 8.795-46.554 11.496-25.272 2.656-45.357 2.626-46.438-1.51 5.199 2.624 23.148 2.332 44.962.039 25.69-2.7 47.011-7.153 46.555-11.496l-.365-3.474a1.384 1.384 0 0 0-.055-.266z"/>
        <path fill="#1C1E33" d="M79.257 54.898c25.69-2.7 46.848-7.477 46.397-11.769-.45-4.292-21.642-5.583-47.332-2.883s-46.149 8.369-45.698 12.66c.451 4.293 20.944 4.692 46.633 1.992z"/>
        <path fill="#07070D" d="M78.469 54.838c24.997-2.717 44.692-7.19 44.25-11.4-.443-4.21-20.84-5.533-45.864-3.034.487-.054.976-.106 1.467-.158 25.69-2.7 46.881-1.41 47.332 2.883.451 4.292-20.027 8.858-45.717 11.558-.49.051-.98.102-1.468.151z"/>
        <path fill="#31334A" d="M45.344 15.02C49.9 10.802 58.95 7.863 72.49 6.204c13.54-1.66 22.856-1.663 27.948-.01l4.14 39.389c-7.863 3.07-16.464 5.097-25.802 6.078-9.339.982-18.23.794-26.677-.562l-6.755-36.08z"/>
        <path fill="#232536" d="M72.337 6.308c.486-.056.975-.11 1.467-.161 9.682-1.018 18.56-1.002 26.634.047l4.14 39.389c-7.863 3.07-16.464 5.097-25.802 6.078-.491.052-.98.1-1.47.146 8.775-1.034 16.886-3.006 24.336-5.916l-4.14-39.388c-7.664-.996-16.052-1.061-25.165-.195z"/>
        <path fill="#FFF" d="M50.977 44.702c8.394 1.438 17.44 1.648 27.138.629 9.698-1.02 18.357-3.063 25.977-6.13l.555 6.225c-7.879 3.049-16.495 5.065-25.848 6.048-9.353.983-18.259.809-26.715-.523l-1.107-6.249z"/>
        <path fill="#E8E8E8" d="M76.652 45.476c-.488.057-.98.111-1.473.163-8.701.915-16.73.847-24.084-.204l-.129-.717c7.978 1.356 16.54 1.608 25.686.758zm24.574-5.187a77.72 77.72 0 0 0 2.866-1.087l.555 6.224c-7.879 3.049-16.495 5.065-25.848 6.048-.49.052-.98.1-1.47.145 8.79-1.034 16.917-2.995 24.382-5.884l-.485-5.446z"/>
        <g transform="rotate(-5 283.238 -774.245)">
            <mask id="b" fill="#fff">
                <use xlink:href="#a"/>
            </mask>
            <use fill="#FFF" xlink:href="#a"/>
            <path fill="#E8E8E8" d="M14.737.897c.525.372.948.853 1.258 1.431.398.742.61 1.477.61 3.506v4.88c0 2.03-.212 2.765-.61 3.507a4.142 4.142 0 0 1-1.726 1.72c-.744.397-1.482.608-3.518.608H5.854c-2.036 0-2.774-.211-3.518-.608a4.142 4.142 0 0 1-1.81-1.883c.148.106.304.202.468.29.744.396 1.483.607 3.518.607H9.41c2.035 0 2.773-.211 3.517-.608a4.142 4.142 0 0 0 1.726-1.72c.398-.742.61-1.477.61-3.506v-4.88c0-1.882-.182-2.651-.526-3.344z" mask="url(#b)"/>
            <path fill="url(#c)" fill-rule="nonzero" d="M10.054 8.615l.496 2.892a1.168 1.168 0 0 1-1.698 1.23.578.578 0 0 1-.243-.782.582.582 0 0 1 .785-.243c.005 0-.174-1.067-.537-3.201a.578.578 0 0 1 .167-.512l1.723-1.679a.413.413 0 0 0-.227-.705l-2.387-.358a.581.581 0 0 1-.438-.318L6.63 2.782a.413.413 0 0 0-.74 0L4.814 4.938a.581.581 0 0 1-.438.318l-2.382.345a.413.413 0 0 0-.23.704L3.486 8a.578.578 0 0 1 .166.512l-.407 2.37a.413.413 0 0 0 .598.437l2.14-1.112a.581.581 0 0 1 .853.512v10.316a.58.58 0 0 1-1.163 0v-9.356l-2.015 1.06a1.172 1.172 0 0 1-1.7-1.231l.497-2.892L.353 6.567a1.166 1.166 0 0 1 .649-1.991l2.689-.39a.413.413 0 0 0 .311-.227l1.203-2.435a1.171 1.171 0 0 1 2.1 0l1.298 2.63 2.904.422a1.168 1.168 0 0 1 .65 1.991l-2.103 2.048z" mask="url(#b)" transform="rotate(35 6.255 11.243)"/>
            <path fill="url(#d)" d="M8.48 10.118l-1.696.89a.276.276 0 0 1-.4-.292l.324-1.88a.276.276 0 0 0-.08-.244L5.259 7.26a.276.276 0 0 1 .153-.47l1.895-.275a.276.276 0 0 0 .207-.15l.849-1.713a.276.276 0 0 1 .493 0l.849 1.713c.04.08.117.137.207.15l1.895.275a.276.276 0 0 1 .153.47l-1.37 1.33a.276.276 0 0 0-.08.245l.324 1.88a.276.276 0 0 1-.4.291l-1.697-.889a.276.276 0 0 0-.255 0z" mask="url(#b)" transform="rotate(37 8.609 7.71)"/>
        </g>
        <g fill="#F3DE60">
            <g fill-rule="nonzero">
                <path d="M20.262 80.304a3.229 3.229 0 1 1 0-6.458 3.229 3.229 0 0 1 0 6.458zm0-1.476a1.753 1.753 0 1 0 0-3.506 1.753 1.753 0 0 0 0 3.506zM5.779 57.057a4.797 4.797 0 1 1 0-9.594 4.797 4.797 0 0 1 0 9.594zm0-1.476a3.321 3.321 0 1 0 0-6.642 3.321 3.321 0 0 0 0 6.642zM28.565 68.127a2.49 2.49 0 1 1 0-4.982 2.49 2.49 0 0 1 0 4.982zm0-1.476a1.015 1.015 0 1 0 0-2.03 1.015 1.015 0 0 0 0 2.03zM18.034 61.41a.738.738 0 0 1 .498.255l1.715 1.99.218-2.618a.738.738 0 0 1 .254-.498l1.99-1.715-2.618-.218a.738.738 0 0 1-.498-.254l-1.715-1.99-.218 2.618a.738.738 0 0 1-.254.498l-1.99 1.715 2.618.218zM13.54 62.52a.738.738 0 0 1-.42-1.295l3.095-2.667.338-4.072a.738.738 0 0 1 1.295-.42l2.667 3.095 4.072.338a.738.738 0 0 1 .42 1.295l-3.095 2.667-.338 4.072a.738.738 0 0 1-1.295.42l-2.667-3.095-4.072-.338zM7.766 70.307a.738.738 0 0 1 .498.254l.548.636.07-.837a.738.738 0 0 1 .253-.498l.636-.548-.837-.07a.738.738 0 0 1-.498-.253l-.548-.637-.07.837a.738.738 0 0 1-.253.498l-.636.548.837.07zm-2.714 1.256a.738.738 0 0 1-.42-1.295l1.74-1.5.19-2.29a.738.738 0 0 1 1.295-.42l1.5 1.74 2.29.19a.738.738 0 0 1 .421 1.295l-1.74 1.5-.19 2.29a.738.738 0 0 1-1.295.42l-1.5-1.74-2.29-.19z"/>
            </g>
        </g>
        <g transform="translate(74.413 71.918)">
            <mask id="f" fill="#fff">
                <use xlink:href="#e"/>
            </mask>
            <use fill="#000" xlink:href="#e"/>
            <circle cx="8.672" cy="9.41" r="4.613" fill="#E94545" mask="url(#f)"/>
        </g>
    </g>
</svg>
