<svg xmlns="http://www.w3.org/2000/svg" width="32" height="32" viewBox="0 0 32 32">
    <defs>
        <linearGradient id="a" x1="50%" x2="50%" y1="1.732%" y2="100%">
            <stop offset="0%" stop-color="#7A8389" stop-opacity=".504"/>
            <stop offset="100%" stop-color="#F1F2F3" stop-opacity="0"/>
        </linearGradient>
    </defs>
    <g fill="none" fill-rule="evenodd">
        <path fill="#7A8389" fill-rule="nonzero" d="M18 21.586l2.293-2.293A1 1 0 0 1 21 19h2v-9H9v9h8a1 1 0 0 1 1 1v1.586zM21.414 21l-3.707 3.707c-.63.63-1.707.184-1.707-.707v-3H8a1 1 0 0 1-1-1V9a1 1 0 0 1 1-1h16a1 1 0 0 1 1 1v11a1 1 0 0 1-1 1h-2.586z"/>
        <path fill="url(#a)" d="M18 21.586l2.293-2.293A1 1 0 0 1 21 19h2v-9H9v9h8a1 1 0 0 1 1 1v1.586z"/>
    </g>
</svg>
