<svg xmlns="http://www.w3.org/2000/svg" xmlns:xlink="http://www.w3.org/1999/xlink" width="813" height="707" viewBox="0 0 813 707">
    <defs>
        <path id="a" d="M31.728 0h26.544c11.032 0 15.033 1.149 19.066 3.306 4.034 2.157 7.2 5.322 9.356 9.356C88.851 16.695 90 20.696 90 31.728v26.544c0 11.032-1.149 15.033-3.306 19.066-2.157 4.034-5.322 7.2-9.356 9.356C73.305 88.851 69.304 90 58.272 90H31.728c-11.032 0-15.033-1.149-19.066-3.306-4.034-2.157-7.2-5.322-9.356-9.356C1.149 73.305 0 69.304 0 58.272V31.728c0-11.032 1.149-15.033 3.306-19.066 2.157-4.034 5.322-7.2 9.356-9.356C16.695 1.149 20.696 0 31.728 0z"/>
        <linearGradient id="c" x1="50%" x2="50%" y1="0%" y2="100%">
            <stop offset="0%" stop-color="#FB00FD"/>
            <stop offset="100%" stop-color="#8C29D7"/>
        </linearGradient>
        <linearGradient id="d" x1="50%" x2="50%" y1="45.445%" y2="100%">
            <stop offset="0%" stop-color="#EEE"/>
            <stop offset="100%" stop-color="#FFF" stop-opacity="0"/>
        </linearGradient>
    </defs>
    <g fill="none" fill-rule="evenodd">
        <ellipse cx="462" cy="638" fill="#000" fill-opacity=".082" rx="224" ry="23"/>
        <g transform="translate(177 401)">
            <ellipse cx="132.235" cy="90.396" fill="#913CD2" fill-rule="nonzero" rx="60.916" ry="44.962" transform="rotate(-30 132.235 90.396)"/>
            <path fill="#000" fill-opacity=".1" fill-rule="nonzero" d="M113 47.335a82.845 82.845 0 0 1 7.55-4.92c29.135-16.822 62.819-13.025 75.234 8.48 12.336 21.366-.964 52.174-29.713 69.068-24.823-19.13-43.487-44.187-53.071-72.628z"/>
            <path fill="#31334A" d="M3.808 20.072c.238-5.041 1.676-8.881 4.316-11.52 2.639-2.64 6.479-4.078 11.52-4.316l98.165 98.166c-.474 4.804-2.03 8.526-4.67 11.165-2.64 2.64-6.361 4.196-11.165 4.67L3.808 20.072z"/>
            <path fill="#000" fill-opacity=".12" d="M13.778 5.218c1.73-.552 3.686-.88 5.866-.982l98.165 98.166c-.474 4.804-2.03 8.526-4.67 11.165-2.64 2.64-6.361 4.196-11.165 4.67l-1.184-1.183c2.195-.801 4.042-1.95 5.54-3.448 2.64-2.64 4.196-6.361 4.67-11.165L13.778 5.218z"/>
            <path fill="#FFF" d="M19.644 4.236l12.065 12.065c-.475 4.804-2.032 8.526-4.67 11.165-2.64 2.64-6.362 4.196-11.166 4.67L3.808 20.073c.238-5.041 1.676-8.881 4.316-11.52 2.639-2.64 6.479-4.078 11.52-4.316z"/>
            <path fill="#F2F2F2" d="M18.432 9.873c1.731-.552-.545-5.111 1.635-5.214l11.642 11.642c-.206 2.078-.613 3.953-1.223 5.625L18.432 9.873z"/>
            <path fill="#F2F2F2" d="M9.781 19.197c.434-.359.849-.736 1.245-1.132 3.28-3.28 5.267-7.85 5.963-13.713a26.76 26.76 0 0 1 2.742-.265l.434.434c-.474 4.804-2.03 8.526-4.67 11.165-1.537 1.538-3.442 2.708-5.714 3.51z"/>
            <path fill="#7228AA" fill-rule="nonzero" d="M117.46 139.705c4.257-9.13-.09-22.97-9.22-27.227-9.13-4.257-23.005 1.46-27.263 10.591 4.656 5.926 9.612 10.027 14.869 12.304 4.486 2.888 11.69 4.332 21.613 4.332z"/>
        </g>
        <g fill-rule="nonzero">
            <path fill="#913CD2" d="M593.879 531.375c-29.136-16.821-42.69-47.89-30.274-69.395 12.416-21.505 46.1-25.302 75.235-8.48 29.136 16.82 42.69 47.89 30.274 69.395-12.416 21.505-46.1 25.302-75.235 8.48z"/>
            <path fill="#000" fill-opacity=".1" d="M636.39 450.42a82.845 82.845 0 0 0-7.55-4.92c-29.135-16.822-62.82-13.025-75.235 8.48-12.336 21.366.965 52.174 29.713 69.069 24.823-19.13 43.487-44.188 53.071-72.629z"/>
        </g>
        <g transform="translate(280 234)">
            <ellipse cx="178.5" cy="155.5" fill="#BA60FF" fill-rule="nonzero" rx="178.5" ry="155.5"/>
            <path fill="#000" fill-opacity=".088" fill-rule="nonzero" d="M15.86 89.674C44.389 36.7 106.283 0 178.042 0 276.877 0 357 69.62 357 155.5c0 33.463-12.164 64.457-32.86 89.826 10.764-19.99 16.778-42.298 16.778-65.826 0-85.88-80.123-155.5-178.96-155.5C101.635 24 48.28 49.936 15.862 89.674z"/>
            <path fill="#A957E9" d="M67 204a5 5 0 1 1 0-10 5 5 0 0 1 0 10zm29 0a5 5 0 1 1 0-10 5 5 0 0 1 0 10zm-13 17a5 5 0 1 1 0-10 5 5 0 0 1 0 10zM251 204a5 5 0 1 1 0-10 5 5 0 0 1 0 10zm29 0a5 5 0 1 1 0-10 5 5 0 0 1 0 10zm-13 17a5 5 0 1 1 0-10 5 5 0 0 1 0 10z"/>
            <path fill="#FFF" d="M80.56 169.89c20.272-5.433 36.601-10.226 31.17-30.498-5.433-20.271-26.27-32.302-46.541-26.87-20.272 5.432-32.302 26.269-26.87 46.54 5.432 20.272 21.97 16.259 42.241 10.827z"/>
            <path fill="#000" d="M57.474 142.943a6.5 6.5 0 1 0 4.649-10.794 15.926 15.926 0 0 1 7.207-4.172c8.535-2.287 17.309 2.778 19.596 11.314 2.287 8.535-2.778 17.309-11.314 19.596-8.535 2.287-17.309-2.779-19.596-11.314a16 16 0 0 1-.542-4.63z"/>
            <g>
                <path fill="#FFF" d="M267.279 166.21c20.272 5.432 36.36 11.124 41.791-9.147 5.432-20.272-6.598-41.109-26.87-46.54-20.271-5.433-41.108 6.598-46.54 26.87-5.432 20.271 11.347 23.385 31.619 28.817z"/>
                <path fill="#000" d="M261.086 130.112a6.5 6.5 0 1 0 9.423-7.024 15.926 15.926 0 0 1 8.327-.009c8.535 2.287 13.6 11.06 11.314 19.596-2.288 8.536-11.061 13.601-19.596 11.314-8.536-2.287-13.601-11.06-11.314-19.596a16 16 0 0 1 1.846-4.28z"/>
            </g>
        </g>
        <path fill="#31334A" d="M198.587 299.016c-2.482-23.618 108.38-54.628 247.617-69.263 139.237-14.634 254.123-7.351 256.606 16.267l1.986 18.896c2.482 23.618-113.075 47.792-252.312 62.426-139.238 14.635-249.428 14.188-251.91-9.43l-1.987-18.896z"/>
        <path fill="#212337" fill-opacity=".71" d="M694.511 236.573c5.066 2.774 7.93 5.93 8.299 9.447l1.986 18.896c2.482 23.618-113.075 47.792-252.312 62.426-136.972 14.397-245.835 14.199-251.704-8.296 28.181 14.276 125.47 12.723 243.704.296 139.237-14.634 254.794-38.808 252.312-62.426l-1.986-18.896a7.55 7.55 0 0 0-.299-1.447z"/>
        <path fill="#1C1E33" d="M451.3 309.439c139.237-14.635 253.911-40.573 251.458-63.916-2.454-23.344-117.317-30.404-256.554-15.77-139.237 14.635-250.123 45.422-247.67 68.766 2.454 23.343 113.528 25.554 252.765 10.92z"/>
        <path fill="#07070D" d="M447.026 309.11c135.485-14.73 242.226-39.018 239.82-61.915-2.407-22.897-112.967-30.128-248.596-16.585 2.64-.291 5.292-.577 7.954-.857 139.237-14.634 254.1-7.574 256.554 15.77 2.453 23.343-108.537 48.131-247.774 62.766-2.662.28-5.315.554-7.958.822z"/>
        <path fill="#31334A" d="M267.404 92.502c24.694-22.93 73.735-38.892 147.121-47.89 73.387-8.998 123.88-8.998 151.483 0l22.514 214.215c-42.611 16.685-89.224 27.688-139.839 33.007-50.614 5.32-98.812 4.283-144.594-3.112l-36.685-196.22z"/>
        <path fill="#232536" d="M413.695 45.18c2.635-.303 5.285-.595 7.95-.875 52.48-5.516 100.6-5.414 144.363.307l22.514 214.215c-42.611 16.685-89.224 27.688-139.839 33.007-2.66.28-5.315.542-7.963.787 47.555-5.606 91.519-16.314 131.89-32.121L550.095 46.284c-41.54-5.43-87.006-5.798-136.4-1.104z"/>
        <path fill="#FFF" d="M297.996 253.935c45.498 7.838 94.528 8.994 147.092 3.47 52.564-5.525 99.494-16.62 140.792-33.283l3.015 33.852c-42.695 16.566-89.391 27.513-140.087 32.842-50.696 5.328-98.964 4.362-144.803-2.899l-6.01-33.982z"/>
        <path fill="#E8E8E8" d="M437.162 258.19c-2.647.31-5.31.605-7.986.887-47.162 4.957-90.676 4.57-130.542-1.16l-.698-3.894c43.241 7.387 89.65 8.775 139.226 4.166zm133.183-28.157a420.096 420.096 0 0 0 15.535-5.91l3.015 33.851c-42.695 16.566-89.391 27.513-140.087 32.842-2.66.28-5.315.542-7.963.787 47.638-5.608 91.683-16.26 132.138-31.957l-2.638-29.613z"/>
        <g transform="rotate(-5 1674.985 -4438.897)">
            <mask id="b" fill="#fff">
                <use xlink:href="#a"/>
            </mask>
            <use fill="#FFF" xlink:href="#a"/>
            <path fill="#E8E8E8" d="M79.876 4.877c2.842 2.023 5.136 4.64 6.818 7.785C88.851 16.695 90 20.696 90 31.728v26.544c0 11.032-1.149 15.033-3.306 19.066-2.157 4.034-5.322 7.2-9.356 9.356C73.305 88.851 69.304 90 58.272 90H31.728c-11.032 0-15.033-1.149-19.066-3.306-4.034-2.157-7.2-5.322-9.356-9.356a30.927 30.927 0 0 1-.455-.882 23.39 23.39 0 0 0 2.538 1.571c4.034 2.157 8.034 3.306 19.067 3.306H51c11.032 0 15.033-1.149 19.066-3.306 4.033-2.157 7.199-5.322 9.356-9.355 2.157-4.034 3.306-8.034 3.306-19.067V23.061c0-10.23-.988-14.414-2.852-18.184z" mask="url(#b)"/>
            <path fill="url(#c)" fill-rule="nonzero" d="M54.493 46.852l2.69 15.726a6.35 6.35 0 0 1-5.179 7.333 6.336 6.336 0 0 1-4.028-.64 3.15 3.15 0 1 1 2.938-5.573c.03 0-.94-5.804-2.91-17.412a3.15 3.15 0 0 1 .903-2.784l9.358-9.145a2.24 2.24 0 0 0-1.232-3.817l-12.951-1.952a3.15 3.15 0 0 1-2.372-1.726l-5.773-11.727a2.24 2.24 0 0 0-4.015-.008L26.09 26.862a3.15 3.15 0 0 1-2.372 1.726L10.794 30.47a2.24 2.24 0 0 0-1.25 3.811l9.348 9.22a3.15 3.15 0 0 1 .903 2.784l-2.207 12.902a2.24 2.24 0 0 0 3.244 2.364l11.599-6.048c2.098-1.106 4.619.415 4.619 2.787v56.104a3.15 3.15 0 0 1-6.3 0V63.512l-10.926 5.76a6.34 6.34 0 0 1-8.571-2.669 6.359 6.359 0 0 1-.636-4.025l2.69-15.726L1.913 35.716a6.358 6.358 0 0 1-.115-8.975 6.34 6.34 0 0 1 3.632-1.855l14.573-2.124a2.24 2.24 0 0 0 1.687-1.227L28.21 8.29a6.34 6.34 0 0 1 11.38 0l7.04 14.304 15.74 2.293a6.35 6.35 0 0 1 5.364 7.197 6.355 6.355 0 0 1-1.847 3.633L54.493 46.852z" mask="url(#b)" transform="rotate(35 33.9 61.145)"/>
            <path fill="url(#d)" d="M45.963 55.029l-9.193 4.833a1.493 1.493 0 0 1-2.167-1.574l1.756-10.238a1.493 1.493 0 0 0-.43-1.321l-7.438-7.25a1.493 1.493 0 0 1 .828-2.548l10.279-1.493c.486-.071.907-.377 1.124-.817l4.597-9.315a1.493 1.493 0 0 1 2.678 0l4.597 9.315c.218.44.638.746 1.125.817l10.279 1.493a1.493 1.493 0 0 1 .827 2.547l-7.438 7.25a1.493 1.493 0 0 0-.43 1.322l1.757 10.238a1.493 1.493 0 0 1-2.167 1.574l-9.194-4.833a1.493 1.493 0 0 0-1.39 0z" mask="url(#b)" transform="rotate(37 46.658 41.932)"/>
        </g>
        <g fill="#F3DE60">
            <g fill-rule="nonzero">
                <path d="M131.5 447c-9.665 0-17.5-7.835-17.5-17.5s7.835-17.5 17.5-17.5 17.5 7.835 17.5 17.5-7.835 17.5-17.5 17.5zm0-8a9.5 9.5 0 1 0 0-19 9.5 9.5 0 0 0 0 19zM53 321c-14.36 0-26-11.64-26-26s11.64-26 26-26 26 11.64 26 26-11.64 26-26 26zm0-8c9.941 0 18-8.059 18-18s-8.059-18-18-18-18 8.059-18 18 8.059 18 18 18zM176.5 381c-7.456 0-13.5-6.044-13.5-13.5s6.044-13.5 13.5-13.5 13.5 6.044 13.5 13.5-6.044 13.5-13.5 13.5zm0-8a5.5 5.5 0 1 0 0-11 5.5 5.5 0 0 0 0 11zM119.426 344.6a4 4 0 0 1 2.7 1.375l9.295 10.79 1.179-14.193a4 4 0 0 1 1.375-2.7l10.79-9.295-14.193-1.179a4 4 0 0 1-2.7-1.375l-9.295-10.79-1.179 14.193a4 4 0 0 1-1.375 2.7l-10.79 9.295 14.193 1.179zm-24.362 6.004c-3.535-.293-4.967-4.701-2.28-7.017l16.777-14.454 1.833-22.07c.293-3.534 4.701-4.966 7.016-2.28l14.455 16.778 22.07 1.833c3.534.293 4.966 4.701 2.279 7.016l-16.777 14.455-1.833 22.07c-.293 3.534-4.701 4.966-7.017 2.279l-14.454-16.777-22.07-1.833zM63.77 392.817a4 4 0 0 1 2.699 1.375l2.971 3.449.377-4.537a4 4 0 0 1 1.375-2.699l3.449-2.971-4.537-.377a4 4 0 0 1-2.699-1.375l-2.971-3.449-.377 4.537a4 4 0 0 1-1.375 2.699l-3.449 2.971 4.537.377zm-14.706 6.806c-3.535-.293-4.967-4.701-2.28-7.017l9.436-8.13 1.03-12.412c.294-3.535 4.702-4.967 7.018-2.28l8.13 9.436 12.412 1.03c3.535.294 4.967 4.702 2.28 7.018l-9.436 8.13-1.03 12.412c-.294 3.535-4.702 4.967-7.018 2.28l-8.13-9.436-12.412-1.03z"/>
            </g>
        </g>
        <g stroke="#000" stroke-linecap="round" stroke-linejoin="round" stroke-width="8">
            <path d="M428 427c14.912 14.667 39.088 14.667 54 0"/>
        </g>
    </g>
</svg>
