<svg xmlns="http://www.w3.org/2000/svg" width="32" height="32" viewBox="0 0 32 32">
    <g fill="none" fill-rule="evenodd">
        <path fill="#7A8389" fill-rule="nonzero" d="M19.051 11.32l-9.684 3.228 4.025 2.43 5.66-5.659zm1.257 1.256l-5.632 5.632 2.408 4.039 3.224-9.671zM6.8 15.076a.889.889 0 0 1 .178-1.605l15.083-5.029a.889.889 0 0 1 1.124 1.124L18.156 24.65a.889.889 0 0 1-1.606.174l-3.596-6.033L6.8 15.075z"/>
        <path fill="#DBDBDB" d="M20.308 12.576l-5.632 5.632 2.408 4.039zM19.051 11.32l-9.684 3.228 4.025 2.43z"/>
    </g>
</svg>
