<svg xmlns="http://www.w3.org/2000/svg" width="32" height="32" viewBox="0 0 32 32">
    <g fill="none" fill-rule="evenodd" opacity=".9">
        <circle cx="16" cy="16" r="16" fill="#FFF" fill-opacity=".298"/>
        <path fill="#2DA3FA" fill-rule="nonzero" d="M17.293 18.708a3 3 0 0 1-4.282-2.969 1.99 1.99 0 0 0 1.507.193l-2.69-2.69a5 5 0 0 0 6.929 6.929l-1.464-1.463zm-7.086-7.087c-1.513.99-2.815 2.441-3.93 4.374 1.284 2.204 2.804 3.782 4.592 4.766A6.975 6.975 0 0 1 9 16c0-1.572.518-3.024 1.394-4.192l-.187-.187zM21.436 22.85C19.804 23.617 17.992 24 16 24c-4.915 0-8.732-2.333-11.451-6.998a2 2 0 0 1-.005-2.007c1.188-2.059 2.596-3.663 4.224-4.813L5.854 7.268a1 1 0 0 1 1.414-1.414l17.97 17.97a1 1 0 0 1-1.414 1.414l-2.388-2.388zm-2.484-6.312l-3.007-3.008a1.987 1.987 0 0 0-.206-.519 3 3 0 0 1 3.213 3.527zm3.416 3.415c1.264-.966 2.378-2.281 3.355-3.958-1.28-2.22-2.808-3.804-4.618-4.785A6.976 6.976 0 0 1 23 16a6.967 6.967 0 0 1-.992 3.594l-1.477-1.477a5 5 0 0 0-6.648-6.648l-2.626-2.626C12.702 8.28 14.283 8 16 8c4.946 0 8.765 2.332 11.456 6.995a2 2 0 0 1-.005 2.007c-1.054 1.81-2.274 3.268-3.66 4.376l-1.423-1.425z"/>
    </g>
</svg>
