<svg xmlns="http://www.w3.org/2000/svg" width="32" height="32" viewBox="0 0 32 32">
    <g fill="none" fill-rule="evenodd">
        <circle cx="16" cy="16" r="16" fill="#FFF" fill-opacity=".4"/>
        <g fill="#E5E5E5">
            <path fill-rule="nonzero" d="M16 22c4.182 0 7.352-1.938 9.723-6.005C23.381 11.935 20.212 10 16 10c-4.212 0-7.38 1.935-9.723 5.995C8.647 20.062 11.818 22 16 22zm0 2c-4.915 0-8.732-2.333-11.451-6.998a2 2 0 0 1-.005-2.007C7.235 10.332 11.054 8 16 8s8.765 2.332 11.456 6.995a2 2 0 0 1-.005 2.007C24.731 21.667 20.915 24 16 24z"/>
            <path fill-rule="nonzero" d="M16 21a5 5 0 1 0 0-10 5 5 0 0 0 0 10zm0 2a7 7 0 1 1 0-14 7 7 0 0 1 0 14z"/>
            <path d="M13.011 15.739a2 2 0 0 0 2.728-2.728 3 3 0 1 1-2.728 2.728z"/>
        </g>
    </g>
</svg>
